<svg xmlns="http://www.w3.org/2000/svg" fill="none" viewBox="0 0 569 419">
  <defs/>
  <path fill="#53539D" d="M204.82 13.93c-34.57 2.43-36.54 51.1-100.66 88.21C52 132.33 25.96 115.9 9.7 138.41c-42.17 58.4 59.81 270.2 177.62 280.08 57.19 4.79 69-42.13 183.82-71.48 92.86-23.73 118.32-1.52 151.72-30.42C601.13 248.9 566.12 36.5 507.18 21.3 456.7 8.22 412.72 146.4 339.41 135.37c-64.78-9.73-80.97-125.25-134.59-121.44z" opacity=".44"/>
  <path fill="#022266" d="M365.96 84.88c2.92 20.07 0 50.95 21.08 67.37 20.06 15.6 36.62 11.72 36.62 11.72 1.97-7.46 27.35-80.3-57.7-79.1z"/>
  <path fill="#32FD99" d="M479.97 89.6c-18.02 7.6-47.56 11.86-57.92 37.1a64.36 64.36 0 00-5.03 22.2c-5.03 11.64-9.85 21.15-14.51 28.9-15.03 24.87-27.94 31.34-38 31.64-20.5.6-27.73-24.64-78.79-69.96-34.72-30.88-54.93-48.3-86.08-53.23-41.28-6.54-73.52 13.53-78.2 16.57-8.96 5.78-34.64 22.2-44.34 53.39C57.9 217.96 117 275.3 123.64 281.53c28.37 26.77 59.45 34.53 76.59 38.79 11.09 2.73 50.19 11.48 98.62-1.07 27.86-7.22 80.97-20.99 112.34-73.3 16.4-27.38 21.22-55.9 21.59-79.1 22.54-.9 63.53-10.41 47.2-77.26z"/>
  <path fill="#515151" d="M479.97 89.6c-2.4 1.06-5.1 1.97-7.88 2.96 12.99 61.6-26.25 70.87-48.14 71.78-.22 23.2-4.89 51.72-21.08 79.17-31 52.55-84.1 66.61-111.9 74.07a208.25 208.25 0 01-77.68 5.47 206.58 206.58 0 0085.56-3.8c27.86-7.22 80.97-20.99 112.34-73.3 16.4-27.38 21.22-55.9 21.59-79.1 22.54-.9 63.53-10.41 47.2-77.26z" opacity=".15"/>
  <path fill="#515151" d="M98.98 181.38c4.43 0 8.02-4.29 8.02-9.58 0-5.3-3.59-9.58-8.02-9.58s-8.02 4.29-8.02 9.58 3.59 9.58 8.02 9.58zM155.3 171.87c4.5 0 8.16-4.39 8.16-9.8 0-5.42-3.65-9.82-8.17-9.82-4.5 0-8.16 4.4-8.16 9.81 0 5.42 3.65 9.81 8.16 9.81z" opacity=".2"/>
  <path fill="#515151" d="M111.6 117.58c3.94-2.51 36.84-21.98 78.2-16.58 36.98 4.87 61.64 27.15 85.56 48.82 45.88 41.52 69.45 71.86 90.6 67.45 9.92-2.05 16.27-7.45 26.7-24.64.5-.83 1.02-1.67 1.46-2.5-11.46 14.82-21.52 19.08-29.62 19.31-20.5.6-27.72-24.64-78.78-69.96-34.72-30.88-54.93-48.3-86.08-53.23-41.28-6.54-73.52 13.53-78.2 16.57-7.58 4.87-26.9 17.27-38.65 39.62 10.8-13.23 23.12-21.14 28.81-24.86z" opacity=".16"/>
  <path fill="#A6FFD0" d="M298.85 319.17c21.37-5.55 57.55-14.9 87.46-42.58-58.8 26.16-97.16 21.52-122.47 10.34-60.04-26.62-76.45-103.95-126.93-101.9-13.42.53-31.22 6.39-39.39 21.3-9.92 18.17-.44 39.92 1.1 43.34a147.56 147.56 0 0025.02 31.78c27.57 26.47 57.84 34.15 76.59 38.79 11.09 2.81 50.19 11.48 98.62-1.07z"/>
  <path stroke="#022266" stroke-linecap="round" stroke-linejoin="round" stroke-miterlimit="10" stroke-width="6" d="M134.43 185.03s34.29 85.17 128.75 105.7" opacity=".12"/>
  <path fill="#515151" d="M304.83 311.72c-48.43 12.55-87.53 3.88-98.62 1.07-18.75-4.72-49.02-12.32-76.6-38.79a147.51 147.51 0 01-25.01-31.78c-1.53-3.43-11.02-25.18-1.1-43.35.15-.3.37-.6.59-.99a34.57 34.57 0 00-6.5 8.44c-9.92 18.18-.43 39.93 1.1 43.35a147.56 147.56 0 0025.02 31.79c27.57 26.46 57.85 34.14 76.6 38.78 11.08 2.74 50.18 11.48 98.61-1.07 21.38-5.55 57.56-14.9 87.46-42.58-2.18.99-4.37 1.9-6.56 2.81-27.06 19.85-56.6 27.53-74.99 32.32z" opacity=".08"/>
  <path stroke="#022266" stroke-linecap="round" stroke-linejoin="round" stroke-miterlimit="10" stroke-width="6" d="M98.98 207.7s13.93 55.8 72.29 87.22c43.04 23.19 111.82 35.5 197.6-6.47M110.07 193.17s47.7 153.84 246.77 96.42" opacity=".12"/>
  <path stroke="#022266" stroke-linecap="round" stroke-linejoin="round" stroke-miterlimit="10" stroke-width="6" d="M298.85 319.17c21.37-5.55 57.55-14.9 87.46-42.58-58.8 26.16-97.16 21.52-122.47 10.34-60.04-26.62-76.45-103.95-126.93-101.9-13.42.53-31.22 6.39-39.39 21.3-9.92 18.17-.44 39.92 1.1 43.34a147.56 147.56 0 0025.02 31.78c27.57 26.47 57.84 34.15 76.59 38.79 11.09 2.81 50.19 11.48 98.62-1.07z"/>
  <path fill="#022266" d="M96.72 180.16c3.67 0 6.64-4.01 6.64-8.97 0-4.96-2.97-8.97-6.64-8.97-3.67 0-6.64 4.01-6.64 8.97 0 4.96 2.97 8.97 6.64 8.97z"/>
  <path fill="#fff" d="M95.7 170.2c1.25 0 2.26-1.4 2.26-3.12 0-1.72-1.01-3.12-2.26-3.12-1.25 0-2.26 1.4-2.26 3.12 0 1.72 1.01 3.12 2.26 3.12z"/>
  <path fill="#022266" d="M152.74 170.28c3.67 0 6.64-4.02 6.64-8.98 0-4.95-2.97-8.97-6.64-8.97-3.67 0-6.64 4.02-6.64 8.97 0 4.96 2.97 8.98 6.64 8.98z"/>
  <path fill="#fff" d="M151.87 161.3c1.33 0 2.4-1.63 2.4-3.65 0-2.01-1.07-3.65-2.4-3.65-1.33 0-2.41 1.64-2.41 3.65 0 2.02 1.08 3.65 2.4 3.65zM153.03 167.62c.65 0 1.17-.82 1.17-1.83 0-1-.52-1.82-1.17-1.82-.64 0-1.16.81-1.16 1.82 0 1 .52 1.83 1.16 1.83zM97.96 176.66c.64 0 1.17-.81 1.17-1.82 0-1-.53-1.83-1.17-1.83-.64 0-1.17.82-1.17 1.83 0 1 .53 1.82 1.17 1.82z"/>
  <path stroke="#022266" stroke-linecap="round" stroke-linejoin="round" stroke-miterlimit="10" stroke-width="6" d="M479.97 89.6c-18.02 7.6-47.56 11.86-57.92 37.1a64.36 64.36 0 00-5.03 22.2c-5.03 11.64-9.85 21.15-14.51 28.9-15.03 24.87-27.94 31.34-38 31.64-20.5.6-27.73-24.64-78.79-69.96-34.72-30.88-54.93-48.3-86.08-53.23-41.28-6.54-73.52 13.53-78.2 16.57-8.96 5.78-34.64 22.2-44.34 53.39C57.9 217.96 117 275.3 123.64 281.53c28.37 26.77 59.45 34.53 76.59 38.79 11.09 2.73 50.19 11.48 98.62-1.07 27.86-7.22 80.97-20.99 112.34-73.3 16.4-27.38 21.22-55.9 21.59-79.1 22.54-.9 63.53-10.41 47.2-77.26z"/>
  <path fill="#32FD99" d="M278.43 248.9s41.06 49.36 10.2 108c-18.96 19.76-35.59-42.6-35.59-62.36 0-19.78 6.42-30.96 6.42-30.96"/>
  <path fill="#515151" d="M278.43 248.9l-.95.7c10.14 18.1 24.14 54.75 2.4 96.11-4.44 4.64-8.75 4.8-12.76 1.98 6.05 11.33 13.64 17.5 21.52 9.2 30.85-58.63-10.21-107.98-10.21-107.98z" opacity=".2"/>
  <path stroke="#022266" stroke-linecap="round" stroke-linejoin="round" stroke-miterlimit="10" stroke-width="6" d="M278.43 248.9s41.06 49.36 10.2 108c-18.96 19.76-35.59-42.6-35.59-62.36 0-19.78 6.42-30.96 6.42-30.96"/>
  <path fill="#333379" d="M340.28 6.32s-29.9-6.08-29.9 25.86c0 31.94 48.14 38.02 61.27 24.33 13.13-13.69 36.25-37.18 23.34-50.64-12.9-13.46-54.7.45-54.7.45zM64.4 47.7c-1.67-.24-10.94-1.38-14.51 3.87-4.45 6.46 2.4 18.86 10.5 24.71 5.47 3.96 16.85 8.75 23.42 2.44 6.13-5.86 4.74-18.33-1.53-25.25-6.71-7.38-16.85-5.93-17.87-5.78z" opacity=".28"/>
</svg>
