<svg xmlns="http://www.w3.org/2000/svg" fill="none" viewBox="0 0 876 829">
  <defs/>
  <g filter="url(#filter0_dd)">
    <path fill="#83EAE0" d="M309.157 26.5869c-65.643 50.2617-21.504 139.0681-90.542 187.0681-45.991 31.966-95.377 13.259-124.0833 55.812-16.2564 24.155-15.2275 51.495-13.7871 67.324C95.149 491.174 232.196 688.52 422.952 641.239c190.755-47.281 103.917-172.678 236.334-218.417 54.428-18.81 112.972-34.125 133.035-128.687 12.347-58.176-6.173-144.72-58.749-165.586-48.769-19.323-79.944 32.48-135.607 13.876-55.869-18.707-45.683-80.069-107.724-117.8938-51.136-31.14377-132.829-34.9468-181.084 2.0557z"/>
  </g>
  <path fill="url(#paint0_radial)" d="M271.749 461.531c35.208 0 63.75-27.571 63.75-61.581 0-34.01-28.542-61.581-63.75-61.581-35.207 0-63.749 27.571-63.749 61.581 0 34.01 28.542 61.581 63.749 61.581z" opacity=".79"/>
  <path fill="#00B763" d="M495.585 358.999s9.416-2.292 27.383-20.258c17.966-17.966 48.199-33.764 59.289 2.292 6.567 21.312 1.92 69.573-19.578 74.653-14.434 3.47-29.675-8.116-39.278-17.718-9.602-9.603-27.878-14.373-27.878-14.373v-24.596h.062z"/>
  <path fill="#07AD5A" d="M495.585 358.999v24.658s18.276 4.77 27.878 14.373c2.912 2.912 6.382 6.071 10.161 8.859 2.664-3.222 7.868-10.222 9.664-15.364 8.178-24.162 3.594-51.731-17.223-55.758-1.053.991-2.106 1.983-3.097 2.974-17.966 17.966-27.383 20.258-27.383 20.258z"/>
  <path stroke="#442753" stroke-linecap="round" stroke-linejoin="round" stroke-miterlimit="10" stroke-width="4" d="M504.63 362.84s30.666-8.611 51.111-29.055M505.497 369.408s44.73-5.886 61.643-13.258M505.683 381.798s25.029 6.133 50.058 20.94M505.683 376.842s43.491 3.841 61.457 3.841" opacity=".8"/>
  <path fill="#00B763" d="M405.134 295.498s2.911-11.771 7.744-16.418c4.832-4.646 12.824-6.009 29.613-2.911 16.727 3.097 28.932 8.797 28.932 15.302 0 3.098-12.143 13.568-15.116 13.568-2.974 0-42.748-10.656-51.173-9.541z"/>
  <path fill="#07AD5A" d="M433.074 284.842c-14.373 0-20.754 6.381-23.17 10.78 13.506 1.363 43.863 9.417 46.403 9.417 2.23 0 9.788-6.072 13.258-10.285-5.7-6.876-22.241-9.912-36.491-9.912z"/>
  <path stroke="#442753" stroke-linecap="round" stroke-linejoin="round" stroke-miterlimit="10" stroke-width="4" d="M419.507 292.276s3.159-7.434 9.417-10.532M443.42 284.842c-7.124 2.168-12.7 9.912-12.7 9.912M443.42 296.427s5.576-6.691 14.869-6.691" opacity=".8"/>
  <path stroke="#0F7C46" stroke-linecap="round" stroke-linejoin="round" stroke-miterlimit="10" stroke-width="6" d="M405.134 295.498s2.911-11.771 7.744-16.418c4.832-4.646 12.824-6.009 29.613-2.911 16.727 3.097 28.932 8.797 28.932 15.302 0 3.098-12.143 13.568-15.116 13.568-2.974 0-42.748-10.656-51.173-9.541zM495.585 358.999s9.416-2.292 27.383-20.258c17.966-17.966 48.199-33.764 59.289 2.292 6.567 21.312 1.92 69.573-19.578 74.653-14.434 3.47-29.675-8.116-39.278-17.718-9.602-9.603-27.878-14.373-27.878-14.373v-24.596h.062z"/>
  <path fill="#00B763" d="M388.964 455.336s15.178 19.515 22.923 27.259c7.744 7.744 68.148-6.815 74.962-13.629 6.815-6.815 8.674-22.303-27.259-30.977.062 0-32.463 27.136-70.626 17.347z"/>
  <path fill="#07AD5A" d="M405.01 475.037c23.232-.929 65.979-4.523 85.247-18.462-2.045-6.505-10.284-13.63-30.667-18.524 0 0-30.481 25.401-67.033 18.152-.619.558-1.177 1.054-1.672 1.611 2.911 3.655 8.797 11.028 14.125 17.223z"/>
  <path stroke="#442753" stroke-linecap="round" stroke-linejoin="round" stroke-miterlimit="10" stroke-width="4" d="M413.993 465.248s8.054 6.134 11.089 12.329M428.923 464.505s6.815 5.266 9.665 10.78M439.889 460.602s7.62 3.469 12.081 10.78M449.306 457.38s13.691 3.903 16.479 9.417M460.581 451.805s14.559 3.345 17.409 8.859" opacity=".8"/>
  <path stroke="#0F7C46" stroke-linecap="round" stroke-linejoin="round" stroke-miterlimit="10" stroke-width="6" d="M388.964 455.336s15.178 19.515 22.923 27.259c7.744 7.744 68.148-6.815 74.962-13.629 6.815-6.815 8.674-22.303-27.259-30.977.062 0-32.463 27.136-70.626 17.347z"/>
  <path fill="#F4E834" d="M254.588 391.525s3.718 16.789 17.099 15.488c9.975-.929 12.391-21.931-2.54-29.923-14.992-7.93-14.559 14.435-14.559 14.435z"/>
  <path fill="#F4E834" stroke="#D3A548" stroke-miterlimit="10" stroke-width="6" d="M254.588 391.525s3.718 16.789 17.099 15.488c9.975-.929 12.391-21.931-2.54-29.923-14.992-7.93-14.559 14.435-14.559 14.435z"/>
  <path fill="#F4E834" d="M266.236 396.605c3.49 0 6.319-2.829 6.319-6.319 0-3.49-2.829-6.32-6.319-6.32-3.49 0-6.32 2.83-6.32 6.32s2.83 6.319 6.32 6.319z"/>
  <path fill="#F99338" d="M266.236 395.861c3.079 0 5.575-2.496 5.575-5.575 0-3.08-2.496-5.576-5.575-5.576-3.08 0-5.576 2.496-5.576 5.576 0 3.079 2.496 5.575 5.576 5.575z" opacity=".66"/>
  <path fill="#00F0B5" d="M505.002 364.947c-7.001-47.208-54.271-79.362-105.506-71.741-9.603 1.425-18.648 4.15-26.949 7.868-9.727 4.398-21.25 1.92-28.251-6.134-3.098-3.593-6.009-6.753-7.558-8.115-4.399-3.842-9.479-7.745-15.302-11.152-2.912-1.735-6.01-3.345-9.293-4.77-3.284-1.425-6.753-2.726-10.346-3.718-.93-.247-1.797-.495-2.726-.743-.93-.186-1.859-.434-2.788-.619-.93-.186-1.921-.31-2.85-.496s-1.921-.248-2.912-.372c-3.903-.433-7.868-.495-11.895-.062-4.027.372-8.054 1.239-11.957 2.664l-.743.248-.372.124-.186.062c-.495.186-.186.062-.309.124l-.062.062-1.239.557-1.24.558-.619.31c-.186.124-.496.247-.682.371-.991.496-1.92 1.054-2.849 1.549-.93.558-1.735 1.115-2.602 1.673-3.346 2.354-6.443 5.018-9.107 7.93-2.664 2.974-5.081 6.133-7.125 9.355-2.044 3.283-3.841 6.691-5.328 10.222l-.248.681-.248.682-.495 1.239c-.124.372-.31.867-.496 1.363l-.433 1.363c-.31.929-.496 1.796-.806 2.726-.248.929-.434 1.796-.681 2.726-1.611 7.248-1.859 14.373-1.239 21.064.681 6.629 2.168 12.824 4.089 18.214 1.92 5.452 4.274 10.16 6.628 14.187 2.355 4.027 4.709 7.31 6.753 9.912.992 1.301 1.983 2.416 2.788 3.408.434.495.806.929 1.177 1.301-1.61 4.398-3.717 13.072 1.797 18.524 5.08 5.08 6.691-14.064 17.656-15.798 3.47-.558 4.337-5.142.806-8.674-2.974-2.973-10.037-3.469-16.294.93-.062-.124-.186-.186-.248-.31-.743-.929-1.61-2.045-2.478-3.284-1.796-2.478-3.903-5.637-5.947-9.417-2.045-3.779-4.027-8.177-5.576-13.195-1.611-5.019-2.726-10.594-3.098-16.48-.371-5.947.124-12.205 1.735-18.4.248-.743.434-1.549.682-2.292.247-.744.495-1.549.743-2.292l.434-1.115c.124-.372.248-.744.433-1.116l.496-1.239.248-.495.248-.558c1.363-2.974 3.035-5.885 4.894-8.673 1.859-2.788 4.027-5.39 6.319-7.744 2.354-2.355 4.894-4.461 7.62-6.196.682-.433 1.363-.867 2.045-1.239.681-.309 1.301-.681 1.982-.991.186-.062.31-.186.496-.248l.619-.248 1.301-.495 1.239-.496.124-.062.31-.062.558-.186c3.035-.991 6.195-1.548 9.355-1.734 3.159-.186 6.381-.062 9.54.433.806.124 1.549.248 2.354.372.806.186 1.549.31 2.355.496.743.186 1.548.371 2.292.619.743.186 1.487.434 2.23.682 2.974.991 5.886 2.168 8.612 3.469 2.726 1.363 5.328 2.788 7.806 4.399 4.956 3.159 9.231 6.691 13.01 10.222 1.177 1.053 3.221 3.531 5.576 6.443 6.814 8.488 7.186 20.383.867 29.242-12.267 17.223-18.152 38.41-14.931 60.156 7.001 47.208 54.271 79.361 105.506 71.741 51.235-7.62 87.291-52.04 80.291-99.31z"/>
  <path fill="#12CC9B" d="M339.216 432.661s.557 2.478 9.974-1.053 17.285-15.24 17.285-15.24l-22.055 8.301-11.585 2.045 6.381 5.947zM337.171 289.736s7.683 15.922 20.631 19.02c12.824 3.097 20.01-7.249 31.224-12.391-9.727 1.921-21.436 7.435-21.436 7.435s-14.992 1.982-24.843-9.107c-9.85-11.028-5.576-4.957-5.576-4.957z"/>
  <path fill="#12CC9B" d="M505.001 364.947c-5.761-38.597-38.41-67.095-78.184-72.051 26.64 11.771 61.767 19.515 62.077 69.944.433 62.077-43.677 94.602-90.947 97.762-9.417.619-19.019-2.478-27.879-3.531 16.356 7.248 35.19 10.036 54.705 7.186 51.296-7.62 87.229-52.04 80.228-99.31z" opacity=".76"/>
  <path fill="#442753" d="M386.548 391.525c10.265 0 18.586-8.738 18.586-19.516 0-10.777-8.321-19.515-18.586-19.515-10.265 0-18.586 8.738-18.586 19.515 0 10.778 8.321 19.516 18.586 19.516z"/>
  <path fill="#fff" d="M381.592 375.107c4.242 0 7.682-3.606 7.682-8.054s-3.44-8.054-7.682-8.054c-4.243 0-7.683 3.606-7.683 8.054s3.44 8.054 7.683 8.054zM393.487 383.657c2.497 0 4.522-2.108 4.522-4.709 0-2.6-2.025-4.708-4.522-4.708-2.498 0-4.523 2.108-4.523 4.708 0 2.601 2.025 4.709 4.523 4.709z"/>
  <path fill="#00B763" d="M446.208 376.16c-.309-.743-2.044-4.584-6.133-6.752-7.063-3.78-15.364.371-19.577 2.416-2.974 1.487-6.567 3.221-6.753 5.885-.186 2.85 3.408 4.151 3.717 6.877-.309 2.788-3.903 4.089-3.717 6.939.186 2.664 3.779 4.46 6.753 5.885 4.151 2.045 12.514 6.195 19.577 2.416 4.089-2.168 5.824-6.009 6.133-6.753.496-1.177 1.301-4.832 1.301-8.487 0-3.655-.805-7.249-1.301-8.426z"/>
  <path stroke="#442753" stroke-linecap="round" stroke-linejoin="round" stroke-miterlimit="10" stroke-width="4" d="M421.489 380.001s10.842-2.664 17.719-2.664M421.489 385.639s10.594-1.487 15.24.682" opacity=".8"/>
  <path stroke="#0F7C46" stroke-linecap="round" stroke-linejoin="round" stroke-miterlimit="10" stroke-width="6" d="M446.208 376.16c-.309-.743-2.044-4.584-6.133-6.752-7.063-3.78-15.364.371-19.577 2.416-2.974 1.487-6.567 3.221-6.753 5.885-.186 2.85 3.408 4.151 3.717 6.877-.309 2.788-3.903 4.089-3.717 6.939.186 2.664 3.779 4.46 6.753 5.885 4.151 2.045 12.514 6.195 19.577 2.416 4.089-2.168 5.824-6.009 6.133-6.753.496-1.177 1.301-4.832 1.301-8.487 0-3.655-.805-7.249-1.301-8.426z"/>
  <path stroke="#0A8E6B" stroke-linecap="round" stroke-linejoin="round" stroke-miterlimit="10" stroke-width="6" d="M505.002 364.947c-7.001-47.208-54.271-79.362-105.506-71.741-9.603 1.425-18.648 4.15-26.949 7.868-9.727 4.398-21.25 1.92-28.251-6.134-3.098-3.593-6.009-6.753-7.558-8.115-4.399-3.842-9.479-7.745-15.302-11.152-2.912-1.735-6.01-3.345-9.293-4.77-3.284-1.425-6.753-2.726-10.346-3.718-.93-.247-1.797-.495-2.726-.743-.93-.186-1.859-.434-2.788-.619-.93-.186-1.921-.31-2.85-.496s-1.921-.248-2.912-.372c-3.903-.433-7.868-.495-11.895-.062-4.027.372-8.054 1.239-11.957 2.664l-.743.248-.372.124-.186.062c-.495.186-.186.062-.309.124l-.062.062-1.239.557-1.24.558-.619.31c-.186.124-.496.247-.682.371-.991.496-1.92 1.054-2.849 1.549-.93.558-1.735 1.115-2.602 1.673-3.346 2.354-6.443 5.018-9.107 7.93-2.664 2.974-5.081 6.133-7.125 9.355-2.044 3.283-3.841 6.691-5.328 10.222l-.248.681-.248.682-.495 1.239c-.124.372-.31.867-.496 1.363l-.433 1.363c-.31.929-.496 1.796-.806 2.726-.248.929-.434 1.796-.681 2.726-1.611 7.248-1.859 14.373-1.239 21.064.681 6.629 2.168 12.824 4.089 18.214 1.92 5.452 4.274 10.16 6.628 14.187 2.355 4.027 4.709 7.31 6.753 9.912.992 1.301 1.983 2.416 2.788 3.408.434.495.806.929 1.177 1.301-1.61 4.398-3.717 13.072 1.797 18.524 5.08 5.08 6.691-14.064 17.656-15.798 3.47-.558 4.337-5.142.806-8.674-2.974-2.973-10.037-3.469-16.294.93-.062-.124-.186-.186-.248-.31-.743-.929-1.61-2.045-2.478-3.284-1.796-2.478-3.903-5.637-5.947-9.417-2.045-3.779-4.027-8.177-5.576-13.195-1.611-5.019-2.726-10.594-3.098-16.48-.371-5.947.124-12.205 1.735-18.4.248-.743.434-1.549.682-2.292.247-.744.495-1.549.743-2.292l.434-1.115c.124-.372.248-.744.433-1.116l.496-1.239.248-.495.248-.558c1.363-2.974 3.035-5.885 4.894-8.673 1.859-2.788 4.027-5.39 6.319-7.744 2.354-2.355 4.894-4.461 7.62-6.196.682-.433 1.363-.867 2.045-1.239.681-.309 1.301-.681 1.982-.991.186-.062.31-.186.496-.248l.619-.248 1.301-.495 1.239-.496.124-.062.31-.062.558-.186c3.035-.991 6.195-1.548 9.355-1.734 3.159-.186 6.381-.062 9.54.433.806.124 1.549.248 2.354.372.806.186 1.549.31 2.355.496.743.186 1.548.371 2.292.619.743.186 1.487.434 2.23.682 2.974.991 5.886 2.168 8.612 3.469 2.726 1.363 5.328 2.788 7.806 4.399 4.956 3.159 9.231 6.691 13.01 10.222 1.177 1.053 3.221 3.531 5.576 6.443 6.814 8.488 7.186 20.383.867 29.242-12.267 17.223-18.152 38.41-14.931 60.156 7.001 47.208 54.271 79.361 105.506 71.741 51.235-7.62 87.291-52.04 80.291-99.31z"/>
  <path fill="#fff" d="M351.73 422.253c-3.841 1.487-7.744 2.664-11.585 3.47-7.558-7.373-12.019-18.524-11.213-30.729.557-7.868 3.159-14.993 7.248-20.754-.495 2.354-.867 4.832-.991 7.31-1.177 16.108 5.452 30.977 16.541 40.703z"/>
  <path stroke="#fff" stroke-linecap="round" stroke-linejoin="round" stroke-miterlimit="10" stroke-width="3" d="M351.73 422.253c-3.841 1.487-7.744 2.664-11.585 3.47-7.558-7.373-12.019-18.524-11.213-30.729.557-7.868 3.159-14.993 7.248-20.754-.495 2.354-.867 4.832-.991 7.31-1.177 16.108 5.452 30.977 16.541 40.703z"/>
  <path fill="#fff" d="M363.068 416.801c-2.045 1.177-4.151 2.293-6.319 3.284-.496.248-1.054.495-1.549.681-3.717-5.204-6.01-11.833-6.01-19.081 0-6.381 1.735-12.267 4.709-17.099-.248 1.92-.434 3.903-.434 5.947 0 10.099 3.655 19.33 9.603 26.268z"/>
  <path stroke="#fff" stroke-linecap="round" stroke-linejoin="round" stroke-miterlimit="10" stroke-width="3" d="M363.068 416.801c-2.045 1.177-4.151 2.293-6.319 3.284-.496.248-1.054.495-1.549.681-3.717-5.204-6.01-11.833-6.01-19.081 0-6.381 1.735-12.267 4.709-17.099-.248 1.92-.434 3.903-.434 5.947 0 10.099 3.655 19.33 9.603 26.268z"/>
  <path stroke="#212121" stroke-linecap="round" stroke-linejoin="round" stroke-miterlimit="10" stroke-width="6" d="M402.594 404.411s0 13.072-12.081 20.506M412.94 409.553s4.708 9.417-.31 19.763" opacity=".3"/>
  <path stroke="#0A8E6B" stroke-linecap="round" stroke-linejoin="round" stroke-miterlimit="10" stroke-width="6" d="M370.254 412.155c-4.089 3.036-8.611 5.762-13.506 7.992-7.372 3.407-14.93 5.576-22.364 6.567"/>
  <path stroke="#442753" stroke-linecap="round" stroke-linejoin="round" stroke-miterlimit="10" stroke-width="4" d="M421.489 390.533s8.302.806 10.036 2.54" opacity=".8"/>
  <path fill="#83EAE0" d="M514.109 220.411s-4.709 17.347 13.134 17.347c17.842 0 6.69-24.781-13.134-17.347z"/>
  <defs>
    <radialGradient id="paint0_radial" cx="0" cy="0" r="1" gradientTransform="translate(271.76 399.971) scale(44.2261)" gradientUnits="userSpaceOnUse">
      <stop stop-color="#FF0"/>
      <stop offset="1" stop-color="#FF0" stop-opacity="0"/>
    </radialGradient>
    <filter id="filter0_dd" width="876" height="828.378" x="0" y="0" color-interpolation-filters="sRGB" filterUnits="userSpaceOnUse">
      <feFlood flood-opacity="0" result="BackgroundImageFix"/>
      <feColorMatrix in="SourceAlpha" values="0 0 0 0 0 0 0 0 0 0 0 0 0 0 0 0 0 0 127 0"/>
      <feOffset dy="41.7776"/>
      <feGaussianBlur stdDeviation="16.711"/>
      <feColorMatrix values="0 0 0 0 0.0627451 0 0 0 0 0.709804 0 0 0 0 0.678431 0 0 0 0.0503198 0"/>
      <feBlend in2="BackgroundImageFix" result="effect1_dropShadow"/>
      <feColorMatrix in="SourceAlpha" values="0 0 0 0 0 0 0 0 0 0 0 0 0 0 0 0 0 0 127 0"/>
      <feOffset dy="100"/>
      <feGaussianBlur stdDeviation="40"/>
      <feColorMatrix values="0 0 0 0 0.0627451 0 0 0 0 0.709804 0 0 0 0 0.678431 0 0 0 0.07 0"/>
      <feBlend in2="effect1_dropShadow" result="effect2_dropShadow"/>
      <feBlend in="SourceGraphic" in2="effect2_dropShadow" result="shape"/>
    </filter>
  </defs>
</svg>
